<svg id="visual" viewBox="0 0 1920 1080" width="1920" height="1080" xmlns="http://www.w3.org/2000/svg" xmlns:xlink="http://www.w3.org/1999/xlink" version="1.1"><rect x="0" y="0" width="1920" height="1080" fill="#FFFFFF"></rect><defs><linearGradient id="grad1_0" x1="43.8%" y1="100%" x2="100%" y2="0%"><stop offset="14.444444444444446%" stop-color="#ffffff" stop-opacity="1"></stop><stop offset="85.55555555555554%" stop-color="#ffffff" stop-opacity="1"></stop></linearGradient></defs><defs><linearGradient id="grad2_0" x1="0%" y1="100%" x2="56.3%" y2="0%"><stop offset="14.444444444444446%" stop-color="#ffffff" stop-opacity="1"></stop><stop offset="85.55555555555554%" stop-color="#ffffff" stop-opacity="1"></stop></linearGradient></defs><g transform="translate(1920, 1080)"><path d="M-540 0C-537.3 -77.6 -534.6 -155.2 -494.3 -204.7C-454 -254.2 -376.1 -275.6 -326.7 -326.7C-277.3 -377.7 -256.3 -458.4 -206.6 -498.9C-156.9 -539.4 -78.5 -539.7 0 -540L0 0Z" fill="#061962"></path></g><g transform="translate(0, 0)"><path d="M540 0C504.3 58.6 468.6 117.2 448.1 185.6C427.6 254 422.3 332.3 381.8 381.8C341.4 431.4 265.8 452.4 196.3 474C126.8 495.5 63.4 517.8 0 540L0 0Z" fill="#061962"></path></g></svg>