<svg id="visual" viewBox="0 0 1920 1080" width="1920" height="1080" xmlns="http://www.w3.org/2000/svg" xmlns:xlink="http://www.w3.org/1999/xlink" version="1.1"><rect x="0" y="0" width="1920" height="1080" fill="#FFFFFF"></rect><defs><linearGradient id="grad1_0" x1="43.8%" y1="0%" x2="100%" y2="100%"><stop offset="14.444444444444446%" stop-color="#ffffff" stop-opacity="1"></stop><stop offset="85.55555555555554%" stop-color="#ffffff" stop-opacity="1"></stop></linearGradient></defs><defs><linearGradient id="grad2_0" x1="0%" y1="0%" x2="56.3%" y2="100%"><stop offset="14.444444444444446%" stop-color="#ffffff" stop-opacity="1"></stop><stop offset="85.55555555555554%" stop-color="#ffffff" stop-opacity="1"></stop></linearGradient></defs><g transform="translate(1920, 0)"><path d="M0 540C-77.6 537.3 -155.2 534.6 -204.7 494.3C-254.2 454 -275.6 376.1 -326.7 326.7C-377.7 277.3 -458.4 256.3 -498.9 206.6C-539.4 156.9 -539.7 78.5 -540 0L0 0Z" fill="#061962"></path></g><g transform="translate(0, 1080)"><path d="M0 -540C58.6 -504.3 117.2 -468.6 185.6 -448.1C254 -427.6 332.3 -422.3 381.8 -381.8C431.4 -341.4 452.4 -265.8 474 -196.3C495.5 -126.8 517.8 -63.4 540 0L0 0Z" fill="#061962"></path></g></svg>